<svg width="73" height="73" viewBox="0 0 73 73" fill="none" xmlns="http://www.w3.org/2000/svg">
<path d="M36.1221 1.49982C55.2433 1.49986 70.7441 17.0003 70.7442 36.1219C70.7442 55.2427 55.2434 70.7439 36.1221 70.744C17.0009 70.744 1.50006 55.2427 1.50006 36.1219C1.50016 17.0003 17.001 1.49982 36.1221 1.49982Z" fill="white" stroke="#FED136" stroke-width="3"/>
<path fill-rule="evenodd" clip-rule="evenodd" d="M48.8411 17.8055H21.9339C19.7049 17.8055 17.8978 19.6123 17.8978 21.8413V39.3311C17.8978 39.8028 17.9788 40.2557 18.1275 40.6765H17.8978V43.3672H21.9339V21.8413H48.8411V43.3672H52.8772V40.6765H52.6475C52.7963 40.2557 52.8772 39.8028 52.8772 39.3311V21.8413C52.8772 19.6123 51.0701 17.8055 48.8411 17.8055ZM17.8978 46.0574H52.8772C54.3632 46.0574 55.568 47.2625 55.568 48.7487C55.568 50.2345 53.0178 51.4393 51.5319 51.4393H19.2432C17.7571 51.4393 15.2071 50.2345 15.2071 48.7487C15.2071 47.2625 16.4119 46.0574 17.8978 46.0574ZM39.4237 48.7487H31.3515C30.6084 48.7487 30.0062 49.0498 30.0062 49.4211C30.0062 49.7925 30.6084 50.0938 31.3515 50.0938H39.4237C40.1667 50.0938 40.7691 49.7925 40.7691 49.4211C40.7691 49.0498 40.1667 48.7487 39.4237 48.7487ZM26.3541 33.5894L28.2483 31.6862C28.7713 31.161 29.6194 31.161 30.1424 31.6862L32.6253 34.1805L40.6277 26.1425C41.1507 25.6167 41.9988 25.6167 42.5219 26.1425L44.4161 28.0446C44.9391 28.57 44.9391 29.4221 44.4161 29.9475L33.998 40.4117C33.5502 40.8616 32.864 40.9263 32.3476 40.6057C31.9102 40.7101 31.4307 40.5909 31.0895 40.2482L26.3541 35.4919C25.8311 34.9666 25.8311 34.1151 26.3541 33.5894Z" fill="#FED136"/>
</svg>
