<svg width="73" height="73" viewBox="0 0 73 73" fill="none" xmlns="http://www.w3.org/2000/svg">
<path d="M36.1223 1.50024C55.2434 1.50041 70.7442 17.0005 70.7444 36.1213C70.7444 55.2423 55.2435 70.7432 36.1223 70.7434C17.0011 70.7434 1.50027 55.2423 1.50027 36.1213C1.50052 17.0005 17.0013 1.50024 36.1223 1.50024Z" fill="white" stroke="#FED136" stroke-width="3"/>
<path fill-rule="evenodd" clip-rule="evenodd" d="M38.1483 15.1804C39.4651 14.4197 41.149 14.8709 41.9093 16.1878L46.0393 23.3416C46.1592 23.5493 46.249 23.7662 46.31 23.9872H50.194C52.0948 23.9872 53.6358 25.5279 53.6358 27.4285C53.6358 29.329 52.0948 30.8704 50.194 30.8704H18.5309C16.6301 30.8704 15.0891 29.329 15.0891 27.4285C15.0891 25.5279 16.6301 23.9872 18.5309 23.9872H22.4147C22.4757 23.7662 22.5655 23.5493 22.6855 23.3416L26.8154 16.1878C27.5758 14.8709 29.2597 14.4197 30.5766 15.1804C31.8934 15.941 32.3446 17.6245 31.5843 18.9415L28.6711 23.9872H40.0537L37.1405 18.9415C36.3801 17.6245 36.8312 15.941 38.1483 15.1804ZM19.1133 52.8971L17.9219 32.2468H50.803L49.6115 52.8971H19.1133ZM35.7391 39.13C35.7391 38.3698 35.1228 37.7538 34.3624 37.7538C33.6022 37.7538 32.9858 38.3698 32.9858 39.13V47.3904C32.9858 48.1506 33.6022 48.767 34.3624 48.767C35.1228 48.767 35.7391 48.1506 35.7391 47.3904V39.13ZM42.6225 37.7538C43.3827 37.7538 43.9991 38.3698 43.9991 39.13V47.3904C43.9991 48.1506 43.3827 48.767 42.6225 48.767C41.8621 48.767 41.2457 48.1506 41.2457 47.3904V39.13C41.2457 38.3698 41.8621 37.7538 42.6225 37.7538ZM27.4791 39.13C27.4791 38.3698 26.8627 37.7538 26.1025 37.7538C25.3421 37.7538 24.7258 38.3698 24.7258 39.13V47.3904C24.7258 48.1506 25.3421 48.767 26.1025 48.767C26.8627 48.767 27.4791 48.1506 27.4791 47.3904V39.13Z" fill="#FED136"/>
</svg>
